<?xml version="1.0" standalone="no"?>
<!DOCTYPE svg PUBLIC "-//W3C//DTD SVG 20010904//EN"
 "http://www.w3.org/TR/2001/REC-SVG-20010904/DTD/svg10.dtd">
<svg version="1.0" xmlns="http://www.w3.org/2000/svg"
 width="202.000000pt" height="114.000000pt" viewBox="0 0 202.000000 114.000000"
 preserveAspectRatio="xMidYMid meet">

<g transform="translate(0.000000,114.000000) scale(0.100000,-0.100000)"
fill="#000000" stroke="none">
<path d="M1350 1123 c-82 -29 -154 -118 -186 -230 -2 -9 -32 -13 -104 -13
-114 0 -150 -12 -175 -60 -14 -26 -15 -80 -13 -380 l3 -350 28 -27 27 -28 515
0 515 0 27 28 28 27 3 349 c2 217 -1 358 -7 374 -19 50 -64 67 -179 67 -73 0
-104 4 -106 13 -22 75 -45 118 -90 163 -80 79 -182 103 -286 67z m157 -98 c21
-9 46 -23 56 -33 20 -18 57 -84 57 -102 0 -6 -61 -10 -176 -10 l-176 0 7 28
c11 43 54 92 99 113 50 23 85 24 133 4z m-368 -313 c6 -21 14 -53 17 -70 11
-53 20 -45 38 33 l18 75 59 0 59 0 0 -135 0 -135 -40 0 -40 0 -1 88 0 87 -14
-45 c-7 -25 -19 -64 -25 -87 -10 -40 -13 -43 -44 -43 l-34 0 -24 88 -23 87 -3
-87 -3 -88 -39 0 -40 0 0 135 0 135 65 0 64 0 10 -38z m451 -84 c24 -68 45
-129 48 -135 3 -9 -9 -13 -41 -13 -36 0 -46 4 -50 20 -4 17 -14 20 -55 20 -41
0 -51 -3 -55 -20 -4 -16 -14 -20 -46 -20 -23 0 -41 4 -41 9 0 5 16 53 35 107
60 168 50 154 109 154 l52 0 44 -122z m299 105 c12 -10 24 -34 27 -53 5 -29 1
-40 -21 -62 l-26 -26 25 -51 c14 -28 26 -53 26 -56 0 -3 -20 -5 -45 -5 -44 0
-45 1 -70 50 -14 28 -32 50 -40 50 -11 0 -15 -12 -15 -50 l0 -50 -45 0 -45 0
0 135 0 135 104 0 c84 0 108 -3 125 -17z m-787 -340 l3 -67 54 67 54 67 60 0
59 0 -30 -37 c-16 -21 -39 -47 -51 -57 -12 -11 -21 -25 -21 -32 0 -8 21 -46
46 -85 65 -102 65 -99 1 -99 l-55 0 -31 55 c-17 30 -34 55 -38 55 -21 0 -53
-47 -53 -77 0 -33 0 -33 -50 -33 l-50 0 0 155 0 155 50 0 49 0 3 -67z m518 32
l0 -34 -82 -3 c-77 -3 -83 -5 -86 -25 -3 -22 0 -23 72 -23 l76 0 0 -35 0 -35
-76 0 c-72 0 -75 -1 -72 -22 3 -22 8 -23 91 -26 l87 -3 0 -34 0 -35 -135 0
-135 0 0 155 0 155 130 0 130 0 0 -35z m320 -5 l0 -40 -50 0 -50 0 0 -115 0
-115 -50 0 -50 0 0 115 0 115 -50 0 -50 0 0 40 0 40 150 0 150 0 0 -40z"/>
<path d="M1482 650 c-26 -67 -26 -70 7 -70 34 0 36 7 16 60 l-13 35 -10 -25z"/>
<path d="M1750 665 c0 -24 3 -26 38 -23 29 2 37 7 37 23 0 16 -8 21 -37 23
-35 3 -38 1 -38 -23z"/>
<path d="M0 565 c0 -159 5 -295 11 -325 21 -97 109 -187 219 -221 51 -17 259
-23 319 -10 114 24 202 89 244 179 20 44 22 64 25 350 l3 303 -133 -3 -133 -3
-5 -280 c-5 -298 -7 -308 -57 -340 -36 -24 -131 -25 -167 -2 -57 38 -61 58
-64 355 l-3 272 -130 0 -129 0 0 -275z"/>
</g>
</svg>
